<svg xmlns="http://www.w3.org/2000/svg" viewBox="0 0 528 72"><defs><style>.cls-1{fill:#b0494d;}.cls-2{font-size:29px;font-family:HiraKakuStd-W8-83pv-RKSJ-H, Hiragino Kaku Gothic Std;}.cls-2,.cls-4{fill:#fff;}.cls-3{font-family:STIXSizeTwoSym-Bold, STIXSizeTwoSym;font-weight:700;}</style></defs><title>Google</title><g id="圖層_2" data-name="圖層 2"><g id="圖層_1-2" data-name="圖層 1"><rect class="cls-1" width="528" height="72" rx="36" ry="36"/><text class="cls-2" transform="translate(97.26 44.27)">Continue<tspan class="cls-3" x="152.08" y="0"> </tspan><tspan x="159.33" y="0">with</tspan><tspan class="cls-3" x="230.72" y="0"> </tspan><tspan x="237.97" y="0">Gmail</tspan></text><path class="cls-4" d="M65.69,33.74c0-.34-.1-.67-.16-1,0,0,0-.08-.08-.08a6.38,6.38,0,0,1-1.36-.06H50c-.13,0-.15,0-.15.15q0,3,0,6.1c0,.17,0,.15.15.15h8.75c.14,0,.14,0,.09.13a9.37,9.37,0,0,1-1.93,3.15,9.5,9.5,0,0,1-6.36,3.1,8.74,8.74,0,0,1-3-.25,9.51,9.51,0,0,1-6.69-5.89c0-.06,0-.14-.09-.19l0-.07a9.54,9.54,0,0,1-.52-3.8A9.19,9.19,0,0,1,41,32.09a9.63,9.63,0,0,1,8.15-5.86,9.09,9.09,0,0,1,2.87.22,9.5,9.5,0,0,1,4.1,2.1c.08.07.12.06.2,0l4.34-4.35,0,0c.05,0,0-.06,0-.1-.38-.34-.76-.67-1.17-1A16,16,0,0,0,55,20.65a16,16,0,0,0-19.34,7.82,16.35,16.35,0,0,0-1.14,2.84A15.74,15.74,0,0,0,33.85,35a16.22,16.22,0,0,0,.55,5,15.11,15.11,0,0,0,1.19,3l.05.11a16,16,0,0,0,14,8.62,15.6,15.6,0,0,0,2.77-.21,15.84,15.84,0,0,0,3-.79,16.28,16.28,0,0,0,5-2.94,15.16,15.16,0,0,0,2.23-2.34A15.94,15.94,0,0,0,65.78,37c0-.47.06-.95,0-1.43A17.1,17.1,0,0,0,65.69,33.74Z"/></g></g></svg>