<svg xmlns="http://www.w3.org/2000/svg" viewBox="0 0 224.5 224.5"><defs><style>.cls-1{fill:none;}.cls-2{fill:#223580;}</style></defs><title>Logo</title><g id="圖層_2" data-name="圖層 2"><g id="圖層_1-2" data-name="圖層 1"><rect class="cls-1" x="31.91" y="29.9" width="164.84" height="164.84" rx="31.78" ry="31.78"/><path class="cls-1" d="M60,172.24l.33-.25c-1.2-1.87-2.43-3.72-3.6-5.61C50.15,155.8,45.63,144.48,44.39,132c-1.06-10.71.27-21.27,2.27-31.77,1.42-7.42,3-14.81,4.25-22.29-1.27,4-2.71,7.93-3.77,12-2,7.5-4.17,15-5.48,22.61-3.62,21,2,39.59,15.27,56C57.93,169.79,59,171,60,172.24Z"/><path class="cls-1" d="M181.23,0h-138A43.27,43.27,0,0,0,0,43.27v138A43.28,43.28,0,0,0,36.41,224a46.59,46.59,0,0,0,2-9,63.14,63.14,0,0,0,.12-10.29c-.48-10-4-19.33-7.53-28.58-3.41-8.86-6.61-17.8-8.09-27.22-4.27-27.24.38-53.24,11.24-78.31,2.17-5,4.76-9.84,7.15-14.76q-4.49,4.78-8.67,9.85c-9.37,11.41-16,24.13-18.39,38.86A95,95,0,0,0,18,150.32c3.63,11,8,21.79,12.06,32.68,2.5,6.78,4.82,13.63,4.86,21a23,23,0,0,1-.88,4.57l-.52-.12c-.06-.82-.1-1.64-.17-2.45-.77-8.1-3.32-15.73-6.57-23.1-6.52-14.78-15.26-33.86-15.9-35.35,0,0-9.65-22.66-7.45-49.3C7.94,43.21,79.34-8.49,128.19,2.9a58.07,58.07,0,0,1,8.46,2.67c21,8.23,32.67,26.32,39.91,37.56a121.94,121.94,0,0,1,8.32,15.18,53.69,53.69,0,0,0-8.4,9.47,125.39,125.39,0,0,0-38.61-38.49,86.48,86.48,0,0,0-21-9.49,13,13,0,0,1-1.44-.41c26.21,11.47,45.59,28.67,59.58,50.37-1.37,1.92-2.74,3.87-4.24,5.81-1.77,2.3-3.57,4.47-5.3,6.65a6.46,6.46,0,0,0-4.34,5.9A44.47,44.47,0,0,0,158,93.74a78.1,78.1,0,0,0-7.31-6c-9.22-6.7-18.9-12.76-28.38-19.11C113.86,63,105.67,57.1,99.44,49c-2.81-3.66-5.19-7.66-7.76-11.5A89.7,89.7,0,0,0,96,46.62c6.35,11.16,15.44,19.82,25.7,27.26,10.68,7.75,21.62,15.13,32.43,22.7.69.49,1.36,1,2,1.49-1.91,5.28-3.22,10.87-5.14,16.15l-2.68-2c-13.06-9.84-32.49-23.88-47.18-34.67l-2-1.49-.4.46c7.22,7.45,14.37,15,21.67,22.33,8.47,8.56,17.06,17,25.54,25.55-3.07,4.6-6.69,8.79-8.92,13.86A120.27,120.27,0,0,0,119.14,114C103.94,97.5,99.37,93.79,89,82.27A237.42,237.42,0,0,1,60.89,43.56c-3.72,6.45-4.22,11.52-4,14.93.15,2.34-.79,3.43,3.4,14.83,2.88,7.84,2.1,15.22-1.13,22.61-.25.57-.41,1.18-.7,1.71-1.71,3.15-.06,4.13,2.19,5.23,3.27,1.59,4.05,3.24,2.93,6.8-.82,2.62-.53,3.21,2.07,4.1.44.15.89.28,1.66.51-2.11,3-.84,5,1.73,6.77a4.06,4.06,0,0,1,1.63,4.4c-1,5.09,2.2,6.49,6.08,6.51,4.88,0,9.28-1.73,13.51-4,2.43-1.29,4.75-2.78,7.2-4,2.85-1.43,3.86-1.16,5.4,1.55a64.72,64.72,0,0,1,8.67,27.06,13.11,13.11,0,0,1-3.78,10.52c-5.52,5.78-12.41,9.53-19.5,12.89-5.79,2.74-10.94,4.71-14.81,6.23-12.26,4.79-15.15,5.13-20.19,8.89-6.64,5-8.67,9.64-9.12,10.71a23.4,23.4,0,0,0-1.67,10.1c0,2.55-1,6.43-5.65,12.11a43.61,43.61,0,0,0,6.47.48h138a43.27,43.27,0,0,0,43.27-43.27v-138A43.27,43.27,0,0,0,181.23,0Z"/><path class="cls-2" d="M44.13,201.82c.45-1.07,2.48-5.75,9.12-10.71,5-3.77,7.93-4.1,20.19-8.89,3.87-1.51,9-3.48,14.81-6.23,7.09-3.36,14-7.11,19.5-12.89a13.11,13.11,0,0,0,3.78-10.52,64.72,64.72,0,0,0-8.67-27.06c-1.53-2.71-2.54-3-5.4-1.55-2.46,1.23-4.78,2.72-7.2,4-4.23,2.24-8.63,4-13.51,4-3.88,0-7.13-1.42-6.08-6.51A4.06,4.06,0,0,0,69,121c-2.57-1.73-3.83-3.74-1.73-6.77-.76-.23-1.21-.36-1.66-.51-2.59-.89-2.89-1.48-2.07-4.1,1.12-3.56.34-5.2-2.93-6.8-2.26-1.1-3.91-2.07-2.19-5.23.29-.54.46-1.15.7-1.71,3.23-7.39,4-14.77,1.13-22.61C56.1,61.91,57,60.82,56.89,58.49c-.22-3.42.28-8.48,4-14.93A237.42,237.42,0,0,0,89,82.27c10.34,11.52,14.91,15.23,30.1,31.7A120.27,120.27,0,0,1,137,138.24c2.23-5.08,5.85-9.26,8.92-13.86-8.48-8.55-17.07-17-25.54-25.55C113.11,91.45,106,83.94,98.74,76.49l.4-.46,2,1.49c14.69,10.79,34.12,24.83,47.18,34.67l2.68,2c1.92-5.28,3.23-10.87,5.14-16.15-.68-.5-1.34-1-2-1.49-10.81-7.57-21.75-15-32.43-22.7-10.25-7.44-19.35-16.1-25.7-27.26a89.7,89.7,0,0,1-4.35-9.15c2.57,3.84,4.95,7.84,7.76,11.5,6.24,8.13,14.42,14.07,22.85,19.71,9.48,6.34,19.16,12.4,28.38,19.11a78.1,78.1,0,0,1,7.31,6,44.47,44.47,0,0,1,3.21-5.64,6.46,6.46,0,0,1,4.34-5.9c1.73-2.18,3.53-4.34,5.3-6.65,1.49-1.94,2.87-3.89,4.24-5.81-14-21.69-33.37-38.9-59.58-50.37a13,13,0,0,0,1.44.41,86.48,86.48,0,0,1,21,9.49,125.39,125.39,0,0,1,38.61,38.49,53.69,53.69,0,0,1,8.4-9.47,121.94,121.94,0,0,0-8.32-15.18c-7.24-11.24-18.9-29.33-39.91-37.56a58.07,58.07,0,0,0-8.46-2.67C79.34-8.49,7.94,43.21,3.41,98.21c-2.2,26.64,7.45,49.3,7.45,49.3.64,1.49,9.38,20.57,15.9,35.35,3.26,7.38,5.8,15,6.57,23.1.08.82.12,1.64.17,2.45l.52.12A23,23,0,0,0,34.9,204c0-7.34-2.36-14.19-4.86-21-4-10.9-8.42-21.66-12.06-32.68a95,95,0,0,1-3.71-45.8c2.43-14.73,9-27.45,18.39-38.86q4.16-5.07,8.67-9.85c-2.4,4.91-5,9.75-7.15,14.76-10.86,25.07-15.51,51.07-11.24,78.31,1.48,9.42,4.67,18.36,8.09,27.22,3.56,9.25,7,18.53,7.53,28.58A96.55,96.55,0,0,1,38.43,215a58.75,58.75,0,0,1-1.63,9c4.69-5.68,5.69-9.55,5.65-12.11A23.4,23.4,0,0,1,44.13,201.82Zm-2.47-89.32c1.32-7.63,3.51-15.11,5.48-22.61,1.06-4,2.5-8,3.77-12-1.26,7.48-2.83,14.87-4.25,22.29-2,10.49-3.33,21.05-2.27,31.77,1.23,12.5,5.76,23.83,12.36,34.41,1.18,1.88,2.4,3.74,3.6,5.61l-.33.25c-1-1.23-2.08-2.45-3.09-3.7C43.68,152.08,38,133.47,41.66,112.49Z"/><path class="cls-2" d="M125.92,169.38c4.08,1.58,9.3-1.34,11.08-6.2,1.48-4,0-8.07-3.37-9.39-4.11-1.6-9.2,1.28-11,6.23C121.08,164.16,122.44,168,125.92,169.38Z"/><path class="cls-2" d="M161.81,144.74c.26-.73-.35-1.77-.75-3.31-1.27.85-2.51,1.26-2.57,1.82-.1.81.63,1.73,1,2.6C160.31,145.49,161.6,145.31,161.81,144.74Z"/><path class="cls-2" d="M169.09,185a6,6,0,0,0,7.29.63c3.19-1.9,4.8-6.25,3.87-10.33-.8-3.51-3.31-6.06-6.24-6.31-3.1-.27-6,1.91-7.24,5.5C165.42,178.29,166.35,182.8,169.09,185Z"/><path class="cls-2" d="M179.71,199.06a2.81,2.81,0,0,0,0,5.61,2.81,2.81,0,0,0,0-5.61Z"/><path class="cls-2" d="M206.91,8.45,75.71,224.5H181.23a43.27,43.27,0,0,0,43.27-43.27v-138A43.21,43.21,0,0,0,206.91,8.45ZM160,104.9c.37-5.18,1.23-10.32,2.05-15.46a26.56,26.56,0,0,1,1.72-4.79l.83.21q.6,21.48,1.17,43a3.39,3.39,0,0,1-.54,2.13c-2.09,2.43-4.3,4.76-7.11,7.81C158.79,126.22,159.25,115.55,160,104.9ZM129,150c5.68-1.53,9.27.66,12.45,7.75L197,96.8l1,.49c-1.67,3.46-2.84,7.3-5.1,10.32-10.61,14.21-21.52,28.2-32.36,42.24a5.38,5.38,0,0,1-2,1.34c-2.51,1.16-5.52,1.71-7.48,3.46-4.6,4.12-8.58,8.94-13.06,13.21-2.15,2-4.63,4.13-7.36,5.09-6.45,2.27-12.14-2.2-12.16-9.05A14.89,14.89,0,0,1,129,150Zm-6,56.67h-3.83a14.08,14.08,0,0,0,.16-2.46V200.8c0-.38.06-1.57.1-2.06.06-.84.06-.84.08-1.08-.43,1.24-.62,1.81-.88,2.38l-1.89,4.35a12.34,12.34,0,0,0-.84,2.33h-3.38a10.64,10.64,0,0,0-.84-2.35l-1.79-4.22c0-.08-.6-1.55-.66-1.68-.21-.57-.21-.57-.31-.79a31.23,31.23,0,0,1,.19,3.14v3.44a13.84,13.84,0,0,0,.16,2.46h-3.83a14.3,14.3,0,0,0,.16-2.46V196a17.91,17.91,0,0,0-.16-2.47h5.14a10,10,0,0,0,.74,2.24l2.92,6.83,2.9-6.83a9.22,9.22,0,0,0,.72-2.24H123a15,15,0,0,0-.16,2.47v8.26A12.87,12.87,0,0,0,123,206.71Zm4.44-.18H125v-2h2.5Zm13.89.29a30.85,30.85,0,0,0-3.23-.11h-5.91c-1.34,0-2.14,0-2.88,0a11.63,11.63,0,0,0,.16-2.32v-8.37a15.67,15.67,0,0,0-.16-2.55h4.24a12.89,12.89,0,0,0-.16,2.5v7.87h4.71a27.88,27.88,0,0,0,3.23-.11Zm3.33-.29h-2.5v-2h2.5Zm6.62-3.12a4.13,4.13,0,0,0,2.8.86,6.91,6.91,0,0,0,2.82-.57v-1.81H156a15.16,15.16,0,0,0-1.93.08v-2.81a20.48,20.48,0,0,0,2.55.09h1.56c1,0,1.71,0,2.57-.08a12.33,12.33,0,0,0-.14,2.16v1.78a13.32,13.32,0,0,0,.14,2.36,10.63,10.63,0,0,1-2.47,1,15.66,15.66,0,0,1-4.12.54,8.81,8.81,0,0,1-5.78-1.7,6.63,6.63,0,0,1-2.3-5.26c0-4.17,3.09-6.82,8-6.82a7.58,7.58,0,0,1,5.56,1.89,4.44,4.44,0,0,1,1.15,1.73l-4,.75a2,2,0,0,0-.88-1.14,3.49,3.49,0,0,0-2-.49c-2.49,0-3.85,1.47-3.85,4.14A4.3,4.3,0,0,0,151.33,203.42Zm9.05-51.56,5.84-7.43.74,23c5.93-3.31,9.67-3.11,13.22.58,4.14,4.3,4.8,12.12,1.4,17.31-2.15,3.29-5.05,5.54-9.18,5.14-4.35-.42-7.19-3.12-8.5-7.12a28,28,0,0,1-.94-7c-.23-4-.05-8.05-.46-12S161.18,156.36,160.38,151.85Zm11.22,48a7.56,7.56,0,0,0-2-.3,3.09,3.09,0,0,0-2.32.86,2.05,2.05,0,0,0-.58,1.41v2.47a14.12,14.12,0,0,0,.16,2.38h-4a14.46,14.46,0,0,0,.16-2.39v-4.88a12.74,12.74,0,0,0-.16-2.39h3.87v1.25a4.85,4.85,0,0,1,3.89-1.44,9.48,9.48,0,0,1,1.92.19Zm8.07,7.18c-3.91,0-6.4-2-6.4-5.22s2.49-5.18,6.42-5.18,6.42,2,6.42,5.15S183.54,207.08,179.67,207.08ZM200,206.7h-3.87V206a3.3,3.3,0,0,1,0-.43,6,6,0,0,1-4,1.36,4.91,4.91,0,0,1-3.09-.89,3.07,3.07,0,0,1-1.11-2.67v-4a16.61,16.61,0,0,0-.15-2.38h4a14.61,14.61,0,0,0-.16,2.38v3.25a1.55,1.55,0,0,0,.31,1.19,1.69,1.69,0,0,0,1.26.44,3.78,3.78,0,0,0,2.92-1.63v-3.25A15.67,15.67,0,0,0,196,197h4a14.52,14.52,0,0,0-.16,2.38v4.9A12.78,12.78,0,0,0,200,206.7Zm13.91-1.19a6.33,6.33,0,0,1-4,1.25,8.45,8.45,0,0,1-2.63-.41,4.82,4.82,0,0,1-1.34-.73c0,.14,0,.35,0,.57v1.1a13.5,13.5,0,0,0,.16,2.3h-4a16.66,16.66,0,0,0,.16-2.31v-7.74a15.82,15.82,0,0,0-.16-2.49H206v.54c0,.09,0,.22,0,.3a6.63,6.63,0,0,1,4-1.13A6.47,6.47,0,0,1,214,198a4.52,4.52,0,0,1,1.56,3.69A4.74,4.74,0,0,1,213.91,205.51Zm3.91-94.95c-3.57-.65-7.16-1.27-10.73-1.92-.42-.08-.54.07-.62.59-.18,1.21-.2,1.21.71,1.37l9.8,1.73c.69.12,1,.89.6,1.72a.85.85,0,0,1-1,.6l-9-1.59c-.49-.09-1-.16-1.48-.27-.22,0-.3,0-.35.32-.25,1.28-.26,1.28.72,1.45l4.69.83,5.11.9a.74.74,0,0,1,.68.66,1.7,1.7,0,0,1-.26,1.32.75.75,0,0,1-.89.3c-3.39-.61-6.79-1.19-10.18-1.82-.4-.07-.55,0-.63.57-.14,1-.17,1,.6,1.14l9.93,1.76c.7.13,1,.87.62,1.71a.82.82,0,0,1-1,.61L205,120.73c-.55-.1-.55-.1-.68.64-.16.92-.16.92.55,1l10,1.77c.69.12.94.83.6,1.67-.21.52-.5.71-1,.63l-3.25-.57c-2.37-.42-4.73-.83-7.1-1.26-.31-.06-.42,0-.49.45-.18,1.13-.2,1.13.65,1.28l9.85,1.74c.7.13,1,.8.65,1.64-.21.56-.5.76-1,.67-3.44-.61-6.88-1.21-10.31-1.83-.35-.06-.47,0-.54.49-.17,1.1-.19,1.1.64,1.25,3.3.58,6.59,1.19,9.89,1.73.75.12.9,1.06.6,1.72a.85.85,0,0,1-1,.6l-7.27-1.29c-1-.18-2.09-.36-3.13-.56-.26,0-.35,0-.41.37-.22,1.23-.23,1.23.69,1.39l9.85,1.74c.67.12.91.81.6,1.63-.22.55-.49.73-1,.64-3.42-.6-6.85-1.2-10.27-1.83-.36-.07-.5,0-.57.52-.16,1.08-.18,1.07.62,1.22,3.31.59,6.62,1.19,9.94,1.74.65.11,1,1,.53,1.85a.81.81,0,0,1-1,.48c-3.39-.61-6.79-1.2-10.18-1.82-.41-.08-.57,0-.65.59-.13,1-.16,1,.58,1.12l10,1.76c.69.12.95.81.62,1.65-.21.53-.49.71-1,.62l-9.21-1.63c-.23,0-.45-.09-.68-.12s-.64-.3-.82-.06-.2.89-.3,1.34c0,.22.08.23.19.25l1.1.19,9.38,1.66c.7.12,1,.88.61,1.71a.84.84,0,0,1-1,.6c-3.41-.61-6.82-1.2-10.22-1.83-.4-.07-.55,0-.62.56-.14,1-.17,1,.59,1.16,3.32.59,6.64,1.2,10,1.74.71.11.93,1.07.52,1.84a.8.8,0,0,1-1,.46l-9.51-1.69-.93-.16c-.09,0-.23-.09-.26.09a13.81,13.81,0,0,0-.25,1.38c0,.23.18.17.29.19l3.38.6,7,1.24c.68.12.95.92.58,1.73a.82.82,0,0,1-1,.58l-10.18-1.81c-.56-.1-.56-.1-.69.62-.17.94-.17.94.56,1.07l9.93,1.76c.65.11.92.58.78,1.33s-.56,1.09-1.2,1c-3.4-.6-6.79-1.19-10.18-1.81-.35-.06-.5,0-.58.51-.15,1.06-.18,1.06.64,1.2l9.89,1.75c.7.12,1,.88.61,1.7a.83.83,0,0,1-1,.6c-3.41-.61-6.82-1.2-10.22-1.83-.4-.07-.55,0-.63.57-.14,1-.17,1,.59,1.15,3.32.59,6.65,1.2,10,1.74.69.11,1,1.11.49,1.9a.82.82,0,0,1-1,.43l-9.3-1.65-.46-.08c-1-.17-.94-.17-1.13,1.12,0,.3,0,.39.23.42.64.1,1.27.22,1.9.33l8.54,1.51c.69.12.94.83.6,1.66a.81.81,0,0,1-1,.61l-9.34-1.65c-.37-.06-.73-.12-1.1-.2-.2,0-.27,0-.33.3-.29,1.3-.29,1.3.69,1.47l9.8,1.73c.7.12,1,1,.57,1.78a.83.83,0,0,1-1,.53c-3.41-.61-6.82-1.2-10.22-1.83-.42-.08-.54.07-.61.59-.14,1-.17,1,.61,1.14,3.31.59,6.62,1.2,9.94,1.73.77.12.91,1.07.59,1.77a.8.8,0,0,1-.94.55c-1-.19-2-.36-3-.54-2.45-.43-4.9-.86-7.35-1.31-.33-.06-.47,0-.52.48a9.38,9.38,0,0,1-.23,1.28c-.11.44,0,.57.32.62,3.14.54,6.28,1.1,9.43,1.66.51.09,1,.19,1.52.26.26,0,.29.18.22.48a4.51,4.51,0,0,1-1.67,2.64,5.25,5.25,0,0,1-4.27,1c-2.75-.46-5.5-1-8.24-1.46a5.3,5.3,0,0,1-3.15-1.74,4.92,4.92,0,0,1-1.06-4.41q6.5-36.6,12.94-73.22a4.87,4.87,0,0,1,2.3-3.6,5.26,5.26,0,0,1,3.71-.67q4.15.7,8.28,1.46a5.25,5.25,0,0,1,3.6,2.35,4.5,4.5,0,0,1,.73,2.92C218.31,110.47,218.22,110.63,217.82,110.56Z"/><path class="cls-2" d="M208.93,199.15a2.63,2.63,0,1,0,.12,5.22,3.05,3.05,0,0,0,1.91-.6,2.54,2.54,0,0,0,.86-2.06C211.81,200.08,210.76,199.15,208.93,199.15Z"/></g></g></svg>