<svg xmlns="http://www.w3.org/2000/svg" viewBox="0 0 536.6 72"><defs><style>.cls-1{fill:#3b5998;}.cls-2{font-size:29px;font-family:HiraKakuStd-W8-83pv-RKSJ-H, Hiragino Kaku Gothic Std;}.cls-2,.cls-4{fill:#fff;}.cls-3{font-family:STIXSizeTwoSym-Bold, STIXSizeTwoSym;font-weight:700;}</style></defs><title>FB</title><g id="圖層_2" data-name="圖層 2"><g id="圖層_1-2" data-name="圖層 1"><rect class="cls-1" width="528" height="72" rx="36" ry="36"/><text class="cls-2" transform="translate(97.26 45.7)">Continue<tspan class="cls-3" x="152.08" y="0"> </tspan><tspan x="159.33" y="0">with</tspan><tspan class="cls-3" x="230.72" y="0"> </tspan><tspan x="237.97" y="0">Facebook</tspan></text><rect class="cls-4" x="36.43" y="18.39" width="25.79" height="35.88"/><g id="svg_1" data-name="svg 1"><path id="svg_2" data-name="svg 2" class="cls-1" d="M48.09,8.35a26.34,26.34,0,1,0,13,2.57A26.39,26.39,0,0,0,48.09,8.35ZM58.83,22.69l0,2.87-2.79,0c-3.16,0-3,0-3.3.53s-.37.74-.37,3v2.05h6.5v5.41h-6.5V52.74H46.09V36.58H40.5V31.18h5.59V29.23a11.75,11.75,0,0,1,.34-3.74,7.78,7.78,0,0,1,5.21-5.39c.87-.24,1.25-.26,4.34-.27h2.87Z"/></g></g></g></svg>